<svg width="18" height="18" viewBox="0 0 18 18" fill="none" xmlns="http://www.w3.org/2000/svg">
<path fill-rule="evenodd" clip-rule="evenodd" d="M6.46416 1.76341C6.88576 1.40666 6.93834 0.775685 6.5816 0.354079C6.22485 -0.0675278 5.59388 -0.120109 5.17227 0.236635L1.35409 3.46741L0.451904 4.23079L1.35409 4.99418L5.17227 8.22495C5.59388 8.58169 6.22485 8.52911 6.5816 8.1075C6.93834 7.68589 6.88576 7.05492 6.46415 6.69817L4.72998 5.23079H16.0001C16.5524 5.23079 17.0001 4.78308 17.0001 4.23079C17.0001 3.67851 16.5524 3.23079 16.0001 3.23079H4.72997L6.46416 1.76341Z" fill="black"/>
<path fill-rule="evenodd" clip-rule="evenodd" d="M11.5359 16.2367C11.1143 16.5935 11.0618 17.2245 11.4185 17.6461C11.7752 18.0677 12.4062 18.1203 12.8278 17.7635L16.646 14.5327L17.5482 13.7694L16.646 13.006L12.8278 9.77521C12.4062 9.41847 11.7752 9.47105 11.4185 9.89265C11.0618 10.3143 11.1143 10.9452 11.5359 11.302L13.2701 12.7694H2C1.44772 12.7694 1 13.2171 1 13.7694C1 14.3216 1.44772 14.7694 2 14.7694H13.2701L11.5359 16.2367Z" fill="black"/>
</svg>
